<?xml version="1.0" standalone="no"?>
<!DOCTYPE svg PUBLIC "-//W3C//DTD SVG 20010904//EN"
 "http://www.w3.org/TR/2001/REC-SVG-20010904/DTD/svg10.dtd">
<svg version="1.0" xmlns="http://www.w3.org/2000/svg"
 width="1136.000000pt" height="612.000000pt" viewBox="0 0 1136.000000 612.000000"
 preserveAspectRatio="xMidYMid meet">
<metadata>
Created by potrace 1.16, written by Peter Selinger 2001-2019
</metadata>
<g transform="translate(0.000000,612.000000) scale(0.100000,-0.100000)"
fill="#000000" stroke="none">
<path d="M0 3924 l0 -2196 62 6 c35 3 169 10 298 16 129 5 278 12 330 15 90 5
545 25 1350 60 555 23 593 25 588 19 -6 -6 -348 -28 -838 -53 -591 -32 -945
-50 -1170 -61 -113 -6 -286 -15 -385 -20 -99 -5 -192 -10 -207 -10 l-28 0 0
-850 0 -850 5680 0 5680 0 0 1137 0 1136 -177 -7 c-98 -5 -205 -9 -238 -11
-57 -3 -548 -29 -775 -40 -58 -3 -184 -10 -280 -16 -281 -16 -565 -28 -570
-23 -14 14 38 22 188 28 92 3 246 11 342 16 96 5 317 17 490 25 488 24 857 44
943 51 l77 7 0 1908 0 1909 -5680 0 -5680 0 0 -2196z m3816 995 c2 -51 -1 -57
-25 -71 -14 -9 -32 -13 -39 -11 -7 3 -12 1 -10 -4 4 -17 -14 -53 -27 -53 -7 0
-26 -7 -42 -14 -15 -8 -37 -18 -47 -21 -27 -8 -12 -18 37 -24 49 -7 57 -30 15
-45 -35 -12 -78 6 -78 34 0 19 -10 24 -37 21 -21 -3 -14 23 10 40 12 8 37 22
55 30 43 19 46 59 5 59 -33 1 -68 24 -58 40 3 6 12 10 18 9 20 -4 97 21 97 31
0 17 55 40 90 37 l34 -2 2 -56z m3202 -425 c2 -1 -18 -5 -45 -8 -171 -21 -245
-50 -328 -132 -31 -30 -60 -54 -64 -54 -5 0 -12 -11 -15 -25 -4 -14 -11 -23
-16 -20 -6 3 -10 1 -10 -4 0 -6 -10 -11 -22 -11 -21 0 -68 -38 -68 -55 0 -11
-43 -44 -58 -45 -7 0 -11 -4 -7 -9 3 -6 -5 -20 -18 -33 -80 -77 -138 -151
-134 -169 3 -12 1 -17 -6 -12 -6 4 -8 0 -4 -10 3 -9 3 -16 -1 -14 -9 2 -88
-75 -85 -83 1 -3 -12 -7 -28 -8 -16 -1 -29 1 -29 5 0 16 278 330 430 486 47
48 86 94 88 102 2 9 -9 20 -25 26 l-28 11 40 18 c46 21 38 26 -12 8 -18 -7
-33 -16 -33 -20 0 -4 -80 -8 -177 -8 -103 0 -173 4 -167 9 9 9 104 34 175 46
77 14 272 21 454 17 105 -3 192 -6 193 -8z m-838 -141 c-14 -2 -105 -20 -202
-40 -170 -36 -177 -39 -180 -63 -3 -24 -6 -25 -73 -26 -46 0 -81 -6 -102 -17
-42 -23 -43 -22 -30 18 11 36 17 40 82 50 31 4 295 59 380 78 11 3 49 5 85 4
36 0 54 -1 40 -4z m1102 -132 c13 -5 37 -13 53 -17 24 -6 5 -12 -105 -34 -133
-26 -146 -26 -185 3 -27 20 -16 28 58 43 77 15 149 17 179 5z m-1826 -36 c22
-33 14 -49 -32 -63 -24 -7 -60 -32 -94 -67 -30 -30 -60 -55 -68 -55 -14 0 -67
-34 -173 -112 -46 -33 -76 -48 -98 -48 -17 0 -31 3 -31 8 0 4 68 54 150 111
141 99 261 203 215 187 -15 -5 -17 -4 -9 4 6 6 18 12 25 14 8 1 25 8 39 16 14
8 28 13 33 12 4 -1 7 3 7 8 0 18 19 10 36 -15z m-1233 -424 c23 -9 25 -14 20
-53 -23 -182 -276 -378 -647 -500 -49 -16 -124 -34 -167 -41 -93 -13 -132 -4
-137 32 -5 33 14 49 22 18 12 -49 130 -42 312 19 236 79 433 198 540 327 19
22 44 75 44 91 0 8 5 16 12 18 18 6 -11 63 -41 82 -25 15 -25 15 -4 16 12 0
33 -4 46 -9z m-373 -111 c-8 -5 -23 -10 -33 -10 -10 0 -15 -4 -12 -10 3 -5
-10 -17 -29 -27 -145 -74 -196 -96 -231 -100 -22 -3 -48 -10 -59 -15 -13 -7
-16 -7 -12 1 9 15 -2 14 -60 -4 -27 -9 -71 -18 -99 -21 -80 -7 -102 -14 -84
-25 10 -8 8 -9 -8 -4 -16 4 -23 2 -23 -7 0 -10 -3 -9 -10 2 -7 12 -12 12 -28
-4 -11 -9 -26 -16 -34 -15 -35 4 -69 -2 -62 -12 4 -8 1 -8 -13 -1 -11 6 -25 7
-33 2 -10 -6 -9 -9 6 -13 10 -2 4 -2 -13 0 -20 2 -33 -1 -33 -7 0 -7 -8 -9
-20 -5 -11 4 -20 2 -20 -4 0 -6 -13 -8 -32 -6 -28 5 -30 4 -13 -5 19 -10 18
-10 -3 -6 -14 3 -25 -1 -29 -10 -3 -9 -20 -14 -49 -14 -24 0 -44 -4 -44 -10 0
-5 -12 -10 -27 -9 -26 1 -24 2 15 21 58 26 47 34 -21 14 -76 -22 -101 -20 -48
5 77 34 179 49 131 19 -21 -13 2 -12 37 1 26 10 27 12 8 19 -29 12 -1 12 30 0
14 -5 24 -6 21 -2 -7 12 224 93 376 133 70 18 124 37 122 41 -3 4 28 8 69 8
78 0 168 24 117 32 -17 2 -6 7 35 16 33 7 83 19 110 27 62 16 127 19 105 5z
m1663 -465 c47 -14 127 -71 127 -91 0 -4 10 -19 23 -33 13 -15 40 -64 60 -110
86 -195 87 -425 2 -599 -43 -86 -129 -182 -189 -210 -55 -27 -175 -51 -201
-42 -66 24 -142 44 -153 42 -8 -2 -11 1 -8 6 3 6 1 12 -6 14 -19 7 0 27 50 52
48 25 184 158 249 244 20 26 42 53 49 60 13 12 17 31 29 122 13 108 -32 330
-67 330 -6 0 -27 16 -46 36 -23 24 -41 34 -53 31 -12 -3 -23 2 -29 13 -9 17
-44 19 -86 5 -7 -2 -28 8 -48 21 -50 34 -116 61 -169 69 l-46 7 -6 -33 c-3
-19 -7 -51 -10 -73 -2 -21 -6 -40 -7 -41 -2 -1 -20 -11 -40 -24 -46 -28 -96
-83 -118 -133 -15 -34 -18 -37 -23 -18 -10 37 14 145 46 210 18 38 83 100 104
100 11 0 24 5 29 10 6 6 42 11 80 11 38 0 104 5 147 11 59 9 89 9 121 0 34 -9
50 -8 70 1 14 7 26 15 26 20 0 11 38 8 93 -8z m3532 -69 c42 -13 50 -13 70 0
37 24 96 13 133 -24 39 -40 53 -66 87 -167 43 -125 46 -363 5 -444 -4 -9 -14
-29 -21 -46 -18 -41 -79 -105 -100 -105 -10 0 -20 -4 -23 -9 -10 -15 -55 -19
-67 -5 -6 8 -20 14 -30 14 -23 0 -93 36 -110 57 -11 12 -10 17 4 24 45 26 97
161 97 255 0 38 4 54 16 58 21 8 16 81 -6 81 -10 0 -16 -12 -18 -38 -2 -20 -7
-35 -13 -32 -12 8 -12 72 0 80 15 9 -25 113 -65 172 -19 28 -53 63 -75 78 -21
15 -39 31 -39 36 0 4 17 11 38 14 20 4 42 8 47 10 17 6 21 5 70 -9z m-6895
-173 c-14 -9 -31 -23 -38 -30 -7 -7 -31 -13 -53 -13 -47 0 -41 1 -81 -11 -18
-5 -55 -11 -83 -14 -94 -10 -210 -26 -227 -31 -29 -9 -20 9 16 33 24 15 73 28
171 42 166 25 161 25 144 4 -12 -14 -10 -14 14 2 30 19 79 32 132 34 l29 1
-24 -17z m6835 -47 c18 -13 18 -14 -5 -46 -25 -35 -27 -67 -10 -141 11 -43 10
-49 -11 -73 -27 -31 -78 -35 -101 -8 -37 42 -50 184 -21 233 27 45 108 64 148
35z m-3798 -8 c14 -22 9 -32 -27 -59 -57 -42 -63 -54 -56 -106 3 -26 13 -70
22 -99 l17 -52 -34 -41 c-28 -35 -37 -41 -59 -36 -35 9 -56 30 -85 88 -48 98
-28 225 46 280 45 33 160 49 176 25z m-1926 -75 l34 -8 -44 -5 c-25 -3 -46
-11 -49 -17 -3 -10 19 -13 87 -13 85 0 129 -14 79 -24 -24 -5 -247 -27 -468
-46 -69 -6 -165 -15 -214 -21 -49 -5 -97 -7 -107 -4 -46 15 -3 80 58 89 67 10
295 36 393 45 129 11 191 12 231 4z m2179 -15 c7 -18 9 -19 9 -5 1 9 5 17 10
17 12 0 22 -124 10 -128 -5 -2 -6 -28 -3 -60 7 -62 0 -62 -34 -2 -11 19 -25
34 -31 33 -11 -3 -15 9 -12 40 3 27 -17 20 -34 -14 -23 -43 -23 -103 -1 -128
10 -11 15 -24 11 -30 -3 -7 0 -8 9 -5 8 3 16 15 18 27 2 11 9 22 16 25 9 3 11
-6 8 -32 -5 -35 8 -45 26 -21 17 22 7 -27 -11 -56 l-20 -32 -3 33 c-3 33 -28
56 -28 26 0 -23 -22 -10 -49 29 -13 19 -32 35 -42 35 -10 0 -27 7 -37 16 -18
15 -18 17 7 44 68 73 76 96 51 144 -20 41 -17 44 25 16 32 -21 45 -14 45 28 0
17 6 22 25 22 17 0 29 -7 35 -22z m2988 -661 c9 -11 -6 -14 -76 -15 -48 -2
-100 -5 -117 -7 -16 -3 -230 -14 -475 -26 -245 -11 -497 -24 -560 -28 -114 -7
-183 -2 -147 12 9 3 157 13 329 22 172 8 399 20 503 26 105 7 264 15 355 19
91 3 168 7 171 8 4 1 11 -4 17 -11z m-1892 -100 c6 -6 -89 -12 -481 -32 -165
-8 -328 -17 -362 -20 -35 -2 -63 0 -63 5 0 16 31 19 300 30 146 6 317 15 380
19 117 8 217 7 226 -2z m-1972 -96 c3 -5 -50 -12 -122 -16 -70 -3 -206 -10
-302 -15 -96 -5 -260 -11 -365 -14 -240 -6 -127 7 215 24 135 6 301 15 370 19
184 12 198 12 204 2z"/>
</g>
</svg>
